<mxfile host="65bd71144e">
    <diagram id="gH6pbevSS34mhsbywPAB" name="PÃ¡gina-1">
        <mxGraphModel dx="2320" dy="1171" grid="0" gridSize="10" guides="0" tooltips="1" connect="1" arrows="1" fold="1" page="0" pageScale="1" pageWidth="827" pageHeight="1169" math="0" shadow="0">
            <root>
                <mxCell id="0"/>
                <mxCell id="1" parent="0"/>
                <mxCell id="37" value="OmniControl" style="swimlane;fontStyle=1;align=center;verticalAlign=top;childLayout=stackLayout;horizontal=1;startSize=26;horizontalStack=0;resizeParent=1;resizeParentMax=0;resizeLast=0;collapsible=1;marginBottom=0;" parent="1" vertex="1">
                    <mxGeometry x="-1058" y="230" width="160" height="86" as="geometry"/>
                </mxCell>
                <mxCell id="38" value="+ field: type" style="text;strokeColor=none;fillColor=none;align=left;verticalAlign=top;spacingLeft=4;spacingRight=4;overflow=hidden;rotatable=0;points=[[0,0.5],[1,0.5]];portConstraint=eastwest;" parent="37" vertex="1">
                    <mxGeometry y="26" width="160" height="26" as="geometry"/>
                </mxCell>
                <mxCell id="39" value="" style="line;strokeWidth=1;fillColor=none;align=left;verticalAlign=middle;spacingTop=-1;spacingLeft=3;spacingRight=3;rotatable=0;labelPosition=right;points=[];portConstraint=eastwest;" parent="37" vertex="1">
                    <mxGeometry y="52" width="160" height="8" as="geometry"/>
                </mxCell>
                <mxCell id="40" value="+ method(type): type" style="text;strokeColor=none;fillColor=none;align=left;verticalAlign=top;spacingLeft=4;spacingRight=4;overflow=hidden;rotatable=0;points=[[0,0.5],[1,0.5]];portConstraint=eastwest;" parent="37" vertex="1">
                    <mxGeometry y="60" width="160" height="26" as="geometry"/>
                </mxCell>
                <mxCell id="2" value="Device" style="swimlane;fontStyle=1;align=center;verticalAlign=top;childLayout=stackLayout;horizontal=1;startSize=26;horizontalStack=0;resizeParent=1;resizeParentMax=0;resizeLast=0;collapsible=1;marginBottom=0;" parent="1" vertex="1">
                    <mxGeometry x="-472" y="-2" width="160" height="156" as="geometry"/>
                </mxCell>
                <mxCell id="3" value="physicalId: str;&#10;name: str;&#10;token: str;&#10;features: [str]&#10;status: online/offline&#10;" style="text;strokeColor=none;fillColor=none;align=left;verticalAlign=top;spacingLeft=4;spacingRight=4;overflow=hidden;rotatable=0;points=[[0,0.5],[1,0.5]];portConstraint=eastwest;" parent="2" vertex="1">
                    <mxGeometry y="26" width="160" height="96" as="geometry"/>
                </mxCell>
                <mxCell id="4" value="" style="line;strokeWidth=1;fillColor=none;align=left;verticalAlign=middle;spacingTop=-1;spacingLeft=3;spacingRight=3;rotatable=0;labelPosition=right;points=[];portConstraint=eastwest;" parent="2" vertex="1">
                    <mxGeometry y="122" width="160" height="8" as="geometry"/>
                </mxCell>
                <mxCell id="5" value="+ method(type): type" style="text;strokeColor=none;fillColor=none;align=left;verticalAlign=top;spacingLeft=4;spacingRight=4;overflow=hidden;rotatable=0;points=[[0,0.5],[1,0.5]];portConstraint=eastwest;" parent="2" vertex="1">
                    <mxGeometry y="130" width="160" height="26" as="geometry"/>
                </mxCell>
                <mxCell id="53" value="Sensor" style="swimlane;fontStyle=1;align=center;verticalAlign=top;childLayout=stackLayout;horizontal=1;startSize=26;horizontalStack=0;resizeParent=1;resizeParentMax=0;resizeLast=0;collapsible=1;marginBottom=0;" parent="1" vertex="1">
                    <mxGeometry x="-82" y="-2" width="160" height="160" as="geometry"/>
                </mxCell>
                <mxCell id="54" value="label: str;&#10;long_unit: str;&#10;short_unit: str;&#10;threshold: number;&#10;currentValue: int" style="text;strokeColor=none;fillColor=none;align=left;verticalAlign=top;spacingLeft=4;spacingRight=4;overflow=hidden;rotatable=0;points=[[0,0.5],[1,0.5]];portConstraint=eastwest;" parent="53" vertex="1">
                    <mxGeometry y="26" width="160" height="100" as="geometry"/>
                </mxCell>
                <mxCell id="55" value="" style="line;strokeWidth=1;fillColor=none;align=left;verticalAlign=middle;spacingTop=-1;spacingLeft=3;spacingRight=3;rotatable=0;labelPosition=right;points=[];portConstraint=eastwest;" parent="53" vertex="1">
                    <mxGeometry y="126" width="160" height="8" as="geometry"/>
                </mxCell>
                <mxCell id="56" value="+ method(type): type" style="text;strokeColor=none;fillColor=none;align=left;verticalAlign=top;spacingLeft=4;spacingRight=4;overflow=hidden;rotatable=0;points=[[0,0.5],[1,0.5]];portConstraint=eastwest;" parent="53" vertex="1">
                    <mxGeometry y="134" width="160" height="26" as="geometry"/>
                </mxCell>
                <mxCell id="57" value="Extends" style="endArrow=block;endSize=16;endFill=0;html=1;entryX=0.344;entryY=1.038;entryDx=0;entryDy=0;entryPerimeter=0;" parent="1" source="41" target="5" edge="1">
                    <mxGeometry width="160" relative="1" as="geometry">
                        <mxPoint x="-404" y="655" as="sourcePoint"/>
                        <mxPoint x="-244" y="655" as="targetPoint"/>
                    </mxGeometry>
                </mxCell>
                <mxCell id="41" value="IRControl" style="swimlane;fontStyle=1;align=center;verticalAlign=top;childLayout=stackLayout;horizontal=1;startSize=26;horizontalStack=0;resizeParent=1;resizeParentMax=0;resizeLast=0;collapsible=1;marginBottom=0;" parent="1" vertex="1">
                    <mxGeometry x="-869" y="230" width="160" height="86" as="geometry"/>
                </mxCell>
                <mxCell id="42" value="+ field: type" style="text;strokeColor=none;fillColor=none;align=left;verticalAlign=top;spacingLeft=4;spacingRight=4;overflow=hidden;rotatable=0;points=[[0,0.5],[1,0.5]];portConstraint=eastwest;" parent="41" vertex="1">
                    <mxGeometry y="26" width="160" height="26" as="geometry"/>
                </mxCell>
                <mxCell id="43" value="" style="line;strokeWidth=1;fillColor=none;align=left;verticalAlign=middle;spacingTop=-1;spacingLeft=3;spacingRight=3;rotatable=0;labelPosition=right;points=[];portConstraint=eastwest;" parent="41" vertex="1">
                    <mxGeometry y="52" width="160" height="8" as="geometry"/>
                </mxCell>
                <mxCell id="44" value="+ method(type): type" style="text;strokeColor=none;fillColor=none;align=left;verticalAlign=top;spacingLeft=4;spacingRight=4;overflow=hidden;rotatable=0;points=[[0,0.5],[1,0.5]];portConstraint=eastwest;" parent="41" vertex="1">
                    <mxGeometry y="60" width="160" height="26" as="geometry"/>
                </mxCell>
                <mxCell id="58" value="Extends" style="endArrow=block;endSize=16;endFill=0;html=1;exitX=0.844;exitY=0.012;exitDx=0;exitDy=0;exitPerimeter=0;entryX=0.013;entryY=1.154;entryDx=0;entryDy=0;entryPerimeter=0;" parent="1" source="37" target="5" edge="1">
                    <mxGeometry width="160" relative="1" as="geometry">
                        <mxPoint x="-258" y="557" as="sourcePoint"/>
                        <mxPoint x="-98" y="557" as="targetPoint"/>
                    </mxGeometry>
                </mxCell>
                <mxCell id="59" value="Extends" style="endArrow=block;endSize=16;endFill=0;html=1;entryX=0.6;entryY=0.962;entryDx=0;entryDy=0;entryPerimeter=0;" parent="1" source="45" target="5" edge="1">
                    <mxGeometry width="160" relative="1" as="geometry">
                        <mxPoint x="-304" y="294" as="sourcePoint"/>
                        <mxPoint x="-520.0765765765766" y="148" as="targetPoint"/>
                    </mxGeometry>
                </mxCell>
                <mxCell id="60" value="Extends" style="endArrow=block;endSize=16;endFill=0;html=1;entryX=0.669;entryY=1.103;entryDx=0;entryDy=0;entryPerimeter=0;exitX=0.65;exitY=0.012;exitDx=0;exitDy=0;exitPerimeter=0;" parent="1" source="49" target="5" edge="1">
                    <mxGeometry width="160" relative="1" as="geometry">
                        <mxPoint x="-85" y="305" as="sourcePoint"/>
                        <mxPoint x="-510.0765765765766" y="158" as="targetPoint"/>
                    </mxGeometry>
                </mxCell>
                <mxCell id="45" value="Switcher" style="swimlane;fontStyle=1;align=center;verticalAlign=top;childLayout=stackLayout;horizontal=1;startSize=26;horizontalStack=0;resizeParent=1;resizeParentMax=0;resizeLast=0;collapsible=1;marginBottom=0;" parent="1" vertex="1">
                    <mxGeometry x="-668" y="230" width="160" height="86" as="geometry"/>
                </mxCell>
                <mxCell id="46" value="+ field: type" style="text;strokeColor=none;fillColor=none;align=left;verticalAlign=top;spacingLeft=4;spacingRight=4;overflow=hidden;rotatable=0;points=[[0,0.5],[1,0.5]];portConstraint=eastwest;" parent="45" vertex="1">
                    <mxGeometry y="26" width="160" height="26" as="geometry"/>
                </mxCell>
                <mxCell id="47" value="" style="line;strokeWidth=1;fillColor=none;align=left;verticalAlign=middle;spacingTop=-1;spacingLeft=3;spacingRight=3;rotatable=0;labelPosition=right;points=[];portConstraint=eastwest;" parent="45" vertex="1">
                    <mxGeometry y="52" width="160" height="8" as="geometry"/>
                </mxCell>
                <mxCell id="48" value="+ method(type): type" style="text;strokeColor=none;fillColor=none;align=left;verticalAlign=top;spacingLeft=4;spacingRight=4;overflow=hidden;rotatable=0;points=[[0,0.5],[1,0.5]];portConstraint=eastwest;" parent="45" vertex="1">
                    <mxGeometry y="60" width="160" height="26" as="geometry"/>
                </mxCell>
                <mxCell id="61" value="Voltage" style="swimlane;fontStyle=1;align=center;verticalAlign=top;childLayout=stackLayout;horizontal=1;startSize=26;horizontalStack=0;resizeParent=1;resizeParentMax=0;resizeLast=0;collapsible=1;marginBottom=0;" parent="1" vertex="1">
                    <mxGeometry x="-235" y="230" width="160" height="132" as="geometry"/>
                </mxCell>
                <mxCell id="62" value="max: number;&#10;min: number;" style="text;strokeColor=none;fillColor=none;align=left;verticalAlign=top;spacingLeft=4;spacingRight=4;overflow=hidden;rotatable=0;points=[[0,0.5],[1,0.5]];portConstraint=eastwest;" parent="61" vertex="1">
                    <mxGeometry y="26" width="160" height="72" as="geometry"/>
                </mxCell>
                <mxCell id="63" value="" style="line;strokeWidth=1;fillColor=none;align=left;verticalAlign=middle;spacingTop=-1;spacingLeft=3;spacingRight=3;rotatable=0;labelPosition=right;points=[];portConstraint=eastwest;" parent="61" vertex="1">
                    <mxGeometry y="98" width="160" height="8" as="geometry"/>
                </mxCell>
                <mxCell id="64" value="+ method(type): type" style="text;strokeColor=none;fillColor=none;align=left;verticalAlign=top;spacingLeft=4;spacingRight=4;overflow=hidden;rotatable=0;points=[[0,0.5],[1,0.5]];portConstraint=eastwest;" parent="61" vertex="1">
                    <mxGeometry y="106" width="160" height="26" as="geometry"/>
                </mxCell>
                <mxCell id="49" value="LineFilter" style="swimlane;fontStyle=1;align=center;verticalAlign=top;childLayout=stackLayout;horizontal=1;startSize=26;horizontalStack=0;resizeParent=1;resizeParentMax=0;resizeLast=0;collapsible=1;marginBottom=0;" parent="1" vertex="1">
                    <mxGeometry x="-466" y="230" width="160" height="86" as="geometry"/>
                </mxCell>
                <mxCell id="50" value="+ field: type" style="text;strokeColor=none;fillColor=none;align=left;verticalAlign=top;spacingLeft=4;spacingRight=4;overflow=hidden;rotatable=0;points=[[0,0.5],[1,0.5]];portConstraint=eastwest;" parent="49" vertex="1">
                    <mxGeometry y="26" width="160" height="26" as="geometry"/>
                </mxCell>
                <mxCell id="51" value="" style="line;strokeWidth=1;fillColor=none;align=left;verticalAlign=middle;spacingTop=-1;spacingLeft=3;spacingRight=3;rotatable=0;labelPosition=right;points=[];portConstraint=eastwest;" parent="49" vertex="1">
                    <mxGeometry y="52" width="160" height="8" as="geometry"/>
                </mxCell>
                <mxCell id="52" value="+ method(type): type" style="text;strokeColor=none;fillColor=none;align=left;verticalAlign=top;spacingLeft=4;spacingRight=4;overflow=hidden;rotatable=0;points=[[0,0.5],[1,0.5]];portConstraint=eastwest;" parent="49" vertex="1">
                    <mxGeometry y="60" width="160" height="26" as="geometry"/>
                </mxCell>
                <mxCell id="65" value="Temperature" style="swimlane;fontStyle=1;align=center;verticalAlign=top;childLayout=stackLayout;horizontal=1;startSize=26;horizontalStack=0;resizeParent=1;resizeParentMax=0;resizeLast=0;collapsible=1;marginBottom=0;" parent="1" vertex="1">
                    <mxGeometry x="-45" y="230" width="160" height="129" as="geometry"/>
                </mxCell>
                <mxCell id="66" value="max: number;&#10;min: number;" style="text;strokeColor=none;fillColor=none;align=left;verticalAlign=top;spacingLeft=4;spacingRight=4;overflow=hidden;rotatable=0;points=[[0,0.5],[1,0.5]];portConstraint=eastwest;" parent="65" vertex="1">
                    <mxGeometry y="26" width="160" height="69" as="geometry"/>
                </mxCell>
                <mxCell id="67" value="" style="line;strokeWidth=1;fillColor=none;align=left;verticalAlign=middle;spacingTop=-1;spacingLeft=3;spacingRight=3;rotatable=0;labelPosition=right;points=[];portConstraint=eastwest;" parent="65" vertex="1">
                    <mxGeometry y="95" width="160" height="8" as="geometry"/>
                </mxCell>
                <mxCell id="68" value="+ method(type): type" style="text;strokeColor=none;fillColor=none;align=left;verticalAlign=top;spacingLeft=4;spacingRight=4;overflow=hidden;rotatable=0;points=[[0,0.5],[1,0.5]];portConstraint=eastwest;" parent="65" vertex="1">
                    <mxGeometry y="103" width="160" height="26" as="geometry"/>
                </mxCell>
                <mxCell id="69" value="Amperage" style="swimlane;fontStyle=1;align=center;verticalAlign=top;childLayout=stackLayout;horizontal=1;startSize=26;horizontalStack=0;resizeParent=1;resizeParentMax=0;resizeLast=0;collapsible=1;marginBottom=0;" parent="1" vertex="1">
                    <mxGeometry x="160" y="230" width="160" height="127" as="geometry"/>
                </mxCell>
                <mxCell id="70" value="max: number;&#10;min: number;" style="text;strokeColor=none;fillColor=none;align=left;verticalAlign=top;spacingLeft=4;spacingRight=4;overflow=hidden;rotatable=0;points=[[0,0.5],[1,0.5]];portConstraint=eastwest;" parent="69" vertex="1">
                    <mxGeometry y="26" width="160" height="67" as="geometry"/>
                </mxCell>
                <mxCell id="71" value="" style="line;strokeWidth=1;fillColor=none;align=left;verticalAlign=middle;spacingTop=-1;spacingLeft=3;spacingRight=3;rotatable=0;labelPosition=right;points=[];portConstraint=eastwest;" parent="69" vertex="1">
                    <mxGeometry y="93" width="160" height="8" as="geometry"/>
                </mxCell>
                <mxCell id="72" value="+ method(type): type" style="text;strokeColor=none;fillColor=none;align=left;verticalAlign=top;spacingLeft=4;spacingRight=4;overflow=hidden;rotatable=0;points=[[0,0.5],[1,0.5]];portConstraint=eastwest;" parent="69" vertex="1">
                    <mxGeometry y="101" width="160" height="26" as="geometry"/>
                </mxCell>
                <mxCell id="73" value="Power" style="swimlane;fontStyle=1;align=center;verticalAlign=top;childLayout=stackLayout;horizontal=1;startSize=26;horizontalStack=0;resizeParent=1;resizeParentMax=0;resizeLast=0;collapsible=1;marginBottom=0;" parent="1" vertex="1">
                    <mxGeometry x="345" y="230" width="160" height="144" as="geometry"/>
                </mxCell>
                <mxCell id="74" value="max: number;&#10;min: number;" style="text;strokeColor=none;fillColor=none;align=left;verticalAlign=top;spacingLeft=4;spacingRight=4;overflow=hidden;rotatable=0;points=[[0,0.5],[1,0.5]];portConstraint=eastwest;" parent="73" vertex="1">
                    <mxGeometry y="26" width="160" height="84" as="geometry"/>
                </mxCell>
                <mxCell id="75" value="" style="line;strokeWidth=1;fillColor=none;align=left;verticalAlign=middle;spacingTop=-1;spacingLeft=3;spacingRight=3;rotatable=0;labelPosition=right;points=[];portConstraint=eastwest;" parent="73" vertex="1">
                    <mxGeometry y="110" width="160" height="8" as="geometry"/>
                </mxCell>
                <mxCell id="76" value="+ method(type): type" style="text;strokeColor=none;fillColor=none;align=left;verticalAlign=top;spacingLeft=4;spacingRight=4;overflow=hidden;rotatable=0;points=[[0,0.5],[1,0.5]];portConstraint=eastwest;" parent="73" vertex="1">
                    <mxGeometry y="118" width="160" height="26" as="geometry"/>
                </mxCell>
                <mxCell id="77" value="Digital" style="swimlane;fontStyle=1;align=center;verticalAlign=top;childLayout=stackLayout;horizontal=1;startSize=26;horizontalStack=0;resizeParent=1;resizeParentMax=0;resizeLast=0;collapsible=1;marginBottom=0;" parent="1" vertex="1">
                    <mxGeometry x="540" y="230" width="160" height="136" as="geometry"/>
                </mxCell>
                <mxCell id="78" value="state: tinyint (0||1);" style="text;strokeColor=none;fillColor=none;align=left;verticalAlign=top;spacingLeft=4;spacingRight=4;overflow=hidden;rotatable=0;points=[[0,0.5],[1,0.5]];portConstraint=eastwest;" parent="77" vertex="1">
                    <mxGeometry y="26" width="160" height="76" as="geometry"/>
                </mxCell>
                <mxCell id="79" value="" style="line;strokeWidth=1;fillColor=none;align=left;verticalAlign=middle;spacingTop=-1;spacingLeft=3;spacingRight=3;rotatable=0;labelPosition=right;points=[];portConstraint=eastwest;" parent="77" vertex="1">
                    <mxGeometry y="102" width="160" height="8" as="geometry"/>
                </mxCell>
                <mxCell id="80" value="+ method(type): type" style="text;strokeColor=none;fillColor=none;align=left;verticalAlign=top;spacingLeft=4;spacingRight=4;overflow=hidden;rotatable=0;points=[[0,0.5],[1,0.5]];portConstraint=eastwest;" parent="77" vertex="1">
                    <mxGeometry y="110" width="160" height="26" as="geometry"/>
                </mxCell>
                <mxCell id="81" value="Extends" style="endArrow=block;endSize=16;endFill=0;html=1;exitX=0.306;exitY=0.012;exitDx=0;exitDy=0;exitPerimeter=0;entryX=0.275;entryY=1.154;entryDx=0;entryDy=0;entryPerimeter=0;" parent="1" source="65" target="56" edge="1">
                    <mxGeometry width="160" relative="1" as="geometry">
                        <mxPoint x="622" y="176" as="sourcePoint"/>
                        <mxPoint x="818" y="130" as="targetPoint"/>
                    </mxGeometry>
                </mxCell>
                <mxCell id="82" value="Extends" style="endArrow=block;endSize=16;endFill=0;html=1;exitX=0.25;exitY=0;exitDx=0;exitDy=0;entryX=0.631;entryY=1.115;entryDx=0;entryDy=0;entryPerimeter=0;" parent="1" source="73" target="56" edge="1">
                    <mxGeometry width="160" relative="1" as="geometry">
                        <mxPoint x="632" y="186" as="sourcePoint"/>
                        <mxPoint x="828" y="140" as="targetPoint"/>
                    </mxGeometry>
                </mxCell>
                <mxCell id="83" value="Extends" style="endArrow=block;endSize=16;endFill=0;html=1;entryX=0.488;entryY=1.115;entryDx=0;entryDy=0;entryPerimeter=0;exitX=0.313;exitY=0.023;exitDx=0;exitDy=0;exitPerimeter=0;" parent="1" source="69" target="56" edge="1">
                    <mxGeometry width="160" relative="1" as="geometry">
                        <mxPoint x="642" y="196" as="sourcePoint"/>
                        <mxPoint x="838" y="150" as="targetPoint"/>
                    </mxGeometry>
                </mxCell>
                <mxCell id="84" value="Extends" style="endArrow=block;endSize=16;endFill=0;html=1;entryX=0.069;entryY=1.077;entryDx=0;entryDy=0;entryPerimeter=0;exitX=0.381;exitY=0;exitDx=0;exitDy=0;exitPerimeter=0;" parent="1" source="61" target="56" edge="1">
                    <mxGeometry width="160" relative="1" as="geometry">
                        <mxPoint x="182" y="238" as="sourcePoint"/>
                        <mxPoint x="848" y="160" as="targetPoint"/>
                    </mxGeometry>
                </mxCell>
                <mxCell id="85" value="Extends" style="endArrow=block;endSize=16;endFill=0;html=1;entryX=0.994;entryY=0.962;entryDx=0;entryDy=0;entryPerimeter=0;exitX=0.094;exitY=0;exitDx=0;exitDy=0;exitPerimeter=0;" parent="1" source="77" target="56" edge="1">
                    <mxGeometry width="160" relative="1" as="geometry">
                        <mxPoint x="662" y="216" as="sourcePoint"/>
                        <mxPoint x="858" y="170" as="targetPoint"/>
                    </mxGeometry>
                </mxCell>
                <mxCell id="90" value="User" style="swimlane;fontStyle=1;align=center;verticalAlign=top;childLayout=stackLayout;horizontal=1;startSize=26;horizontalStack=0;resizeParent=1;resizeParentMax=0;resizeLast=0;collapsible=1;marginBottom=0;" parent="1" vertex="1">
                    <mxGeometry x="-265" y="-365" width="160" height="175" as="geometry"/>
                </mxCell>
                <mxCell id="91" value="name;&#10;surname;&#10;email;&#10;password;&#10;active: Status;&#10;role: Role;" style="text;strokeColor=none;fillColor=none;align=left;verticalAlign=top;spacingLeft=4;spacingRight=4;overflow=hidden;rotatable=0;points=[[0,0.5],[1,0.5]];portConstraint=eastwest;" parent="90" vertex="1">
                    <mxGeometry y="26" width="160" height="102" as="geometry"/>
                </mxCell>
                <mxCell id="92" value="" style="line;strokeWidth=1;fillColor=none;align=left;verticalAlign=middle;spacingTop=-1;spacingLeft=3;spacingRight=3;rotatable=0;labelPosition=right;points=[];portConstraint=eastwest;" parent="90" vertex="1">
                    <mxGeometry y="128" width="160" height="8" as="geometry"/>
                </mxCell>
                <mxCell id="93" value="+ method(type): type" style="text;strokeColor=none;fillColor=none;align=left;verticalAlign=top;spacingLeft=4;spacingRight=4;overflow=hidden;rotatable=0;points=[[0,0.5],[1,0.5]];portConstraint=eastwest;" parent="90" vertex="1">
                    <mxGeometry y="136" width="160" height="39" as="geometry"/>
                </mxCell>
                <mxCell id="94" value="DeviceInfo" style="swimlane;fontStyle=1;align=center;verticalAlign=top;childLayout=stackLayout;horizontal=1;startSize=26;horizontalStack=0;resizeParent=1;resizeParentMax=0;resizeLast=0;collapsible=1;marginBottom=0;" parent="1" vertex="1">
                    <mxGeometry x="-680" y="1" width="160" height="108" as="geometry"/>
                </mxCell>
                <mxCell id="95" value="SÃ£o as informaÃ§Ãµes de rede&#10;do dispositivo." style="text;strokeColor=none;fillColor=none;align=left;verticalAlign=top;spacingLeft=4;spacingRight=4;overflow=hidden;rotatable=0;points=[[0,0.5],[1,0.5]];portConstraint=eastwest;" parent="94" vertex="1">
                    <mxGeometry y="26" width="160" height="48" as="geometry"/>
                </mxCell>
                <mxCell id="96" value="" style="line;strokeWidth=1;fillColor=none;align=left;verticalAlign=middle;spacingTop=-1;spacingLeft=3;spacingRight=3;rotatable=0;labelPosition=right;points=[];portConstraint=eastwest;" parent="94" vertex="1">
                    <mxGeometry y="74" width="160" height="8" as="geometry"/>
                </mxCell>
                <mxCell id="97" value="+ method(type): type" style="text;strokeColor=none;fillColor=none;align=left;verticalAlign=top;spacingLeft=4;spacingRight=4;overflow=hidden;rotatable=0;points=[[0,0.5],[1,0.5]];portConstraint=eastwest;" parent="94" vertex="1">
                    <mxGeometry y="82" width="160" height="26" as="geometry"/>
                </mxCell>
                <mxCell id="99" value="1" style="endArrow=open;html=1;endSize=12;startArrow=diamondThin;startSize=14;startFill=1;edgeStyle=orthogonalEdgeStyle;align=left;verticalAlign=bottom;exitX=-0.006;exitY=0.271;exitDx=0;exitDy=0;exitPerimeter=0;" parent="1" source="3" target="95" edge="1">
                    <mxGeometry x="-1" y="3" relative="1" as="geometry">
                        <mxPoint x="-541" y="29" as="sourcePoint"/>
                        <mxPoint x="-598" y="381" as="targetPoint"/>
                    </mxGeometry>
                </mxCell>
                <mxCell id="100" value="Device_has_sensor" style="endArrow=open;html=1;endSize=12;startArrow=diamondThin;startSize=14;startFill=0;edgeStyle=orthogonalEdgeStyle;exitX=1;exitY=0.5;exitDx=0;exitDy=0;entryX=0;entryY=0.61;entryDx=0;entryDy=0;entryPerimeter=0;" parent="1" source="3" target="54" edge="1">
                    <mxGeometry relative="1" as="geometry">
                        <mxPoint x="23" y="191" as="sourcePoint"/>
                        <mxPoint x="183" y="191" as="targetPoint"/>
                    </mxGeometry>
                </mxCell>
                <mxCell id="101" value="1" style="edgeLabel;resizable=0;html=1;align=left;verticalAlign=top;" parent="100" connectable="0" vertex="1">
                    <mxGeometry x="-1" relative="1" as="geometry"/>
                </mxCell>
                <mxCell id="102" value="1..n" style="edgeLabel;resizable=0;html=1;align=right;verticalAlign=top;" parent="100" connectable="0" vertex="1">
                    <mxGeometry x="1" relative="1" as="geometry"/>
                </mxCell>
                <mxCell id="107" value="device_shared_users" style="swimlane;fontStyle=1;align=center;verticalAlign=top;childLayout=stackLayout;horizontal=1;startSize=26;horizontalStack=0;resizeParent=1;resizeParentMax=0;resizeLast=0;collapsible=1;marginBottom=0;" parent="1" vertex="1">
                    <mxGeometry x="-477" y="-196" width="183" height="118" as="geometry"/>
                </mxCell>
                <mxCell id="108" value="authority: owner||editor||reader&#10;user_id&#10;device_id" style="text;strokeColor=none;fillColor=none;align=left;verticalAlign=top;spacingLeft=4;spacingRight=4;overflow=hidden;rotatable=0;points=[[0,0.5],[1,0.5]];portConstraint=eastwest;" parent="107" vertex="1">
                    <mxGeometry y="26" width="183" height="58" as="geometry"/>
                </mxCell>
                <mxCell id="109" value="" style="line;strokeWidth=1;fillColor=none;align=left;verticalAlign=middle;spacingTop=-1;spacingLeft=3;spacingRight=3;rotatable=0;labelPosition=right;points=[];portConstraint=eastwest;" parent="107" vertex="1">
                    <mxGeometry y="84" width="183" height="8" as="geometry"/>
                </mxCell>
                <mxCell id="110" value="+ method(type): type" style="text;strokeColor=none;fillColor=none;align=left;verticalAlign=top;spacingLeft=4;spacingRight=4;overflow=hidden;rotatable=0;points=[[0,0.5],[1,0.5]];portConstraint=eastwest;" parent="107" vertex="1">
                    <mxGeometry y="92" width="183" height="26" as="geometry"/>
                </mxCell>
                <mxCell id="111" value="1" style="endArrow=open;html=1;endSize=12;startArrow=diamondThin;startSize=14;startFill=0;edgeStyle=orthogonalEdgeStyle;align=left;verticalAlign=bottom;exitX=0;exitY=0.5;exitDx=0;exitDy=0;entryX=0.435;entryY=0.019;entryDx=0;entryDy=0;entryPerimeter=0;" parent="1" source="91" target="107" edge="1">
                    <mxGeometry x="-0.8767" y="19" relative="1" as="geometry">
                        <mxPoint x="-238" y="-69" as="sourcePoint"/>
                        <mxPoint x="-105" y="-96" as="targetPoint"/>
                        <mxPoint as="offset"/>
                    </mxGeometry>
                </mxCell>
                <mxCell id="112" value="1" style="endArrow=open;html=1;endSize=12;startArrow=diamondThin;startSize=14;startFill=0;edgeStyle=orthogonalEdgeStyle;align=left;verticalAlign=bottom;exitX=0.5;exitY=0;exitDx=0;exitDy=0;entryX=0.465;entryY=0.962;entryDx=0;entryDy=0;entryPerimeter=0;" parent="1" source="2" target="110" edge="1">
                    <mxGeometry x="-0.689" y="-13" relative="1" as="geometry">
                        <mxPoint x="-265" y="-96" as="sourcePoint"/>
                        <mxPoint x="-105" y="-96" as="targetPoint"/>
                        <mxPoint as="offset"/>
                    </mxGeometry>
                </mxCell>
            </root>
        </mxGraphModel>
    </diagram>
</mxfile>